<svg xmlns="http://www.w3.org/2000/svg" width="150" height="189.289" viewBox="0 0 150 189.289"><path fill="#fff" d="M.001 0h149.999v189.291h-149.999z"/><path fill="#FFCE00" d="M3.571 150.004h142.857v35.713h-142.857zM3.571 3.575h142.857v142.858h-142.857z"/><g fill="#026937"><path d="M21.743 65.187h6.157l-2.714 7.704h6.512l7.013-19.881h-6.517l-2.362 6.71h-6.159l2.365-6.71h-6.517l-7.009 19.881h6.514zM46.747 61.458c.608 0 1.831.142 1.46 1.191-.956 2.704-10.2-.279-12.517 6.292-1.063 3.011.891 4.364 3.621 4.364 2.155 0 3.97-.443 6.135-1.96l-.271 1.546h5.935l.099-.275c-.532-.61-.413-1.023-.123-1.851l2.386-6.765c1.218-3.452 1.7-5.992-5.147-5.992-5.715 0-8.53 1.794-9.614 4.86h5.524c.578-1.243 1.713-1.41 2.512-1.41m-3.69 8.588c-1.132 0-1.647-.496-1.393-1.214.663-1.877 2.989-1.437 5.19-2.347-.563 1.988-1.78 3.561-3.797 3.561M58.391 73.304c2.376 0 3.978-.552 6.117-2.54l-.752 2.126h5.332l5.102-14.468h-5.745l-2.453 6.958c-.788 2.235-1.752 3.478-3.407 3.478-1.381 0-1.849-.634-1.149-2.623l2.758-7.813h-5.744l-3.106 8.807c-1.462 4.143-.101 6.075 3.047 6.075"/><path d="M77.645 72.891l1.429-4.059 1.459-1.079 1.28 5.138h6.904l-2.922-8.864 7.335-5.604h-6.71l-5.231 4.417 3.467-9.83h-5.745l-7.008 19.881zM96.258 73.304c3.369 0 7.431-1.187 9.693-4.775h-5.496c-.717.855-1.69 1.267-2.601 1.267-1.519 0-2.447-1.129-1.844-2.842h10.963c1.933-5.248.005-8.946-5.349-8.946-4.641 0-9.273 3.036-10.949 7.786-1.711 4.859.945 7.51 5.583 7.51m4.35-11.788c1.354 0 2.121 1.186 1.658 2.511h-5.221c.543-1.548 1.853-2.511 3.563-2.511"/><path d="M67.217 81.68l1.637-4.638h-16.209l-7.011 19.88h16.596l1.634-4.638h-10.075l1.098-3.12h8.202l1.636-4.639h-8.204l1.005-2.845zM72.414 91.926c1.099-3.12 2.677-4.226 5.022-4.226.385 0 .764.111 1.13.165l2.026-5.745c-.239-.026-.468-.081-.718-.081-2.235 0-4.024 1.077-5.622 3.342h-.054l1.032-2.927h-5.22l-5.103 14.468h5.744l1.763-4.996zM93.354 96.922l7.01-19.88h-5.744l-2.426 6.876c-.705-1.435-1.822-1.878-3.644-1.878-3.449 0-7.228 3.121-8.922 7.923-1.442 4.088-.391 7.374 3.971 7.374 1.847 0 3.297-.579 5.272-2.347l-.683 1.933h5.166zm-6.859-3.726c-1.88 0-1.642-1.766-1.107-3.287.563-1.601 1.734-3.425 3.637-3.425 1.904 0 1.847 1.74 1.28 3.341-.597 1.686-1.823 3.371-3.81 3.371M98.038 89.825c-1.717 4.86.939 7.511 5.575 7.511 3.372 0 7.432-1.186 9.694-4.776h-5.494c-.717.855-1.691 1.27-2.602 1.27-1.519 0-2.446-1.133-1.841-2.845h10.962c1.933-5.246.008-8.946-5.349-8.946-4.639 0-9.273 3.039-10.945 7.786m9.926-4.277c1.355 0 2.124 1.185 1.654 2.51h-5.215c.542-1.545 1.853-2.51 3.561-2.51"/><path d="M120.161 96.922l2.601-7.37c.652-1.851 1.522-2.983 3.288-2.983 1.63 0 1.57 1.27 1.061 2.707l-2.696 7.647h5.744l3.055-8.67c1.403-3.977.399-6.213-3.412-6.213-2.182 0-3.924.94-5.833 2.677l.8-2.262h-5.248l-5.102 14.468h5.742z"/></g><path fill="#026937" d="M86.212 120.145l-2.634 1.115c-15.548 6.553-32.886 5.529-45.252-2.674-8.111-5.386-17.786-16.234-17.786-37.34h-5.68c0 18.434 7.219 33.377 20.327 42.072 13.929 9.245 33.318 10.462 50.598 3.178l2.642-1.119c20.904-8.852 31.467-12.65 43.015-2.285l1.94-5.788c-14.108-11.157-28.107-5.236-47.17 2.841z"/><path fill="#C3002F" d="M41.469 113.852c10.795 7.165 26.085 7.997 39.903 2.172l2.625-1.11c18.729-7.935 35.088-14.858 51.288-3.288l1.875-5.593c-7.695-5.037-16.113-6.988-25.553-5.938-9.751 1.084-19.504 5.214-29.828 9.587l-2.614 1.106c-12.085 5.097-25.325 4.453-34.555-1.672-8.312-5.514-12.706-15.154-12.706-27.872h-5.682c.001 14.715 5.275 25.987 15.247 32.608z"/><path fill="#FFCE00" d="M38.326 118.586c12.366 8.204 29.704 9.227 45.252 2.674l2.634-1.115c19.063-8.077 33.063-13.998 47.17-2.841l1.903-5.678c-16.199-11.57-32.559-4.647-51.288 3.288l-2.625 1.11c-13.818 5.825-29.108 4.993-39.903-2.172-9.972-6.621-15.246-17.893-15.246-32.607h-5.683c0 21.107 9.675 31.955 17.786 37.341z"/><g fill="#026937"><path d="M21.025 173.67c-.671 0-1.785-.032-3.014-.049v-11.057c.868-.017 2.13-.049 3.474-.049 2.407 0 3.652.983 3.652 2.687 0 1.13-.753 2.129-1.884 2.523v.032c1.442.278 2.114 1.376 2.114 2.523 0 1.441-.951 3.39-4.342 3.39zm.164-9.73c-.491 0-.966.017-1.393.034v3.276c.296.016.574.016.951.016 1.655 0 2.523-.671 2.523-1.785 0-.902-.508-1.541-2.081-1.541zm-.393 4.652c-.18 0-.753 0-1 .017v3.523c.279.048.721.081 1.294.081 1.623 0 2.393-.787 2.393-1.9 0-1.261-1.13-1.721-2.687-1.721zM30.459 173.785c-2.261 0-3.735-1.261-3.735-4.128 0-2.457 1.589-4.342 4.063-4.342 2.178 0 3.718 1.213 3.718 4.08.001 2.507-1.637 4.39-4.046 4.39zm.18-6.994c-1.065 0-2.097.819-2.097 2.686 0 1.836.721 2.802 2.081 2.802 1.13 0 2.08-.885 2.08-2.769 0-1.736-.671-2.719-2.064-2.719zM41.319 173.621c0-.425.032-1.065.115-1.523h-.034c-.442 1-1.393 1.687-2.654 1.687-1.999 0-2.999-1.474-2.999-3.833 0-2.801 1.623-4.603 4.259-4.603.394 0 .787.032 1.229.065v-3.75h1.736v11.958h-1.652zm-.082-6.732c-.442-.098-.868-.147-1.293-.147-1.393 0-2.344.851-2.344 3.046 0 1.638.508 2.555 1.623 2.555 1.293 0 2.014-1.54 2.014-2.931v-2.523zM51.868 169.658h-5.193c-.049 1.884.787 2.735 2.408 2.735.836 0 1.704-.196 2.376-.523l.163 1.391c-.819.345-1.818.525-2.818.525-2.539 0-3.931-1.31-3.931-4.177 0-2.457 1.344-4.293 3.718-4.293 2.327 0 3.327 1.589 3.327 3.523-.001.228-.018.507-.05.819zm-3.343-3.048c-.983 0-1.672.721-1.819 1.819h3.457c.033-1.114-.605-1.819-1.638-1.819zM58.991 173.621v-5.241c0-1.015-.278-1.606-1.212-1.606-1.229 0-2.13 1.294-2.13 2.916v3.931h-1.752v-8.142h1.67c0 .426-.032 1.13-.115 1.59l.017.016c.475-1.049 1.459-1.77 2.834-1.77 1.851 0 2.424 1.164 2.424 2.606v5.7h-1.736zM71.637 163.137c-.36-.115-.754-.164-1.115-.164-1.048 0-1.523.574-1.523 1.851v.655h2.114v1.36h-2.114v6.781h-1.736v-6.781h-1.557v-1.36h1.557v-.621c0-2.229 1.065-3.31 3.178-3.31.459 0 .9.049 1.327.147l-.131 1.442zM77.778 173.621c0-.425.032-1.13.115-1.588l-.017-.017c-.475 1.048-1.459 1.769-2.834 1.769-1.85 0-2.424-1.163-2.424-2.605v-5.701h1.736v5.243c0 1.015.278 1.606 1.212 1.606 1.229 0 2.129-1.295 2.129-2.916v-3.933h1.753v8.142h-1.67zm-3.44-9.681c-.557 0-.983-.442-.983-.999 0-.54.426-.983.983-.983s1 .443 1 .983c0 .557-.443.999-1 .999zm3.227 0c-.557 0-.999-.442-.999-.999 0-.54.442-.983.999-.983.54 0 .983.443.983.983 0 .557-.443.999-.983.999zM86.164 167.036c-1.621-.295-2.408.835-2.408 3.276v3.309h-1.753v-8.142h1.672c0 .459-.049 1.18-.164 1.802h.032c.36-1.097 1.18-2.114 2.704-1.966l-.083 1.721zM91.389 173.621v-11.057h1.785v9.502h3.8v1.555h-5.585zM104.721 169.658h-5.193c-.048 1.884.787 2.735 2.409 2.735.835 0 1.703-.196 2.375-.523l.164 1.391c-.819.345-1.818.525-2.818.525-2.54 0-3.931-1.31-3.931-4.177 0-2.457 1.344-4.293 3.718-4.293 2.327 0 3.325 1.589 3.325 3.523 0 .228-.015.507-.049.819zm-3.342-3.048c-.982 0-1.67.721-1.818 1.819h3.456c.034-1.114-.606-1.819-1.638-1.819zM109.651 173.753c-1.147 0-2.015-.115-2.9-.344v-11.746h1.753v3.75c0 .475-.049 1.13-.147 1.557h.032c.426-1.015 1.393-1.655 2.589-1.655 1.933 0 2.997 1.377 2.997 3.834 0 2.819-1.621 4.604-4.324 4.604zm.868-6.979c-1.311 0-2.015 1.523-2.015 2.899v2.523c.36.115.77.164 1.278.164 1.393 0 2.342-.851 2.342-3.048 0-1.636-.508-2.538-1.605-2.538zM122.23 169.658h-5.193c-.049 1.884.787 2.735 2.408 2.735.836 0 1.704-.196 2.376-.523l.164 1.391c-.819.345-1.819.525-2.818.525-2.54 0-3.933-1.31-3.933-4.177 0-2.457 1.344-4.293 3.719-4.293 2.325 0 3.325 1.589 3.325 3.523.001.228-.015.507-.048.819zm-3.342-3.048c-.983 0-1.67.721-1.818 1.819h3.456c.033-1.114-.606-1.819-1.638-1.819zM129.355 173.621v-5.241c0-1.015-.279-1.606-1.213-1.606-1.229 0-2.129 1.294-2.129 2.916v3.931h-1.753v-8.142h1.67c0 .426-.032 1.13-.114 1.59l.016.016c.475-1.049 1.459-1.77 2.834-1.77 1.851 0 2.425 1.164 2.425 2.606v5.7h-1.736zM135.514 172.623c0 .638-.525 1.163-1.164 1.163-.638 0-1.163-.525-1.163-1.163 0-.623.525-1.147 1.163-1.147.639-.001 1.164.524 1.164 1.147z"/></g></svg>